<?xml version="1.0" encoding="utf-8"?>
<!-- Generator: Adobe Illustrator 28.0.0, SVG Export Plug-In . SVG Version: 6.00 Build 0)  -->
<svg version="1.1" id="Fatec" xmlns="http://www.w3.org/2000/svg" xmlns:xlink="http://www.w3.org/1999/xlink" x="0px" y="0px"
	 viewBox="0 0 968 502.7" style="enable-background:new 0 0 968 502.7;" xml:space="preserve">
<style type="text/css">
	.st0{fill:#FFFFFF;}
</style>
<g id="Fatec-2">
	<path class="st0" d="M51,165.9v117.2H0V0h183.8v44.9H51V121h121.4v44.9L51,165.9L51,165.9z"/>
	<path class="st0" d="M338.2,283.1v-23.2l-20.9,11.4c-18.3,9.6-35.9,14.5-52.9,14.5s-32.1-5.3-43.2-15.8s-16.6-24.3-16.6-41.3
		c0-20,6.9-35.3,20.7-45.6c13.8-10.4,31.6-15.6,53.5-15.6h59.7v-11.8c0-25.6-13.7-38.4-41.1-38.4c-28.9,0-43.4,11.7-43.4,35h-44.9
		v-2.7c0-22.3,8-39.7,24-52.1s37.3-18.6,63.9-18.6s48.6,6.6,63.7,19.8c15.1,13.2,22.6,31.7,22.6,55.6v129H338.2L338.2,283.1z
		 M338.2,200.1H285c-22.8,0-34.2,8.8-34.2,26.2c0,7.1,2.1,12.6,6.3,16.6c4.2,3.9,10.1,5.9,17.7,5.9c10.6,0,22.2-3.3,34.6-9.9
		l28.9-15.6V200.1z"/>
	<path class="st0" d="M515.9,283.1c-23.8,0-42.5-5.9-56.1-17.7c-13.6-11.8-20.4-28.9-20.4-51.2v-92.4H409V82.6h30.4V28.1h47.2v54.4
		h55.6v39.2h-55.5v89.8c0,11.4,2.7,19.5,8,24.4s13.7,7.2,25.1,7.2h23.6v39.9L515.9,283.1L515.9,283.1z"/>
	<path class="st0" d="M744.2,219.9c0,20.3-8,36.5-24,48.5c-16,12-37.3,18.1-63.9,18.1s-47.8-6.9-64.1-20.5
		c-16.4-13.7-24.5-32.6-24.5-56.7v-47.6c0-25.1,8.2-45.1,24.7-59.9s37.8-22.3,63.9-22.3s48,7.4,64.1,22.1s24.2,35,24.2,60.9v35.4
		H611.4v9.9c0,13.7,4.1,24,12.4,30.8s19.2,10.3,32.9,10.3c28.9,0,43.4-10.3,43.4-30.8h44.1V219.9L744.2,219.9z M701.2,161.7
		c0-14.2-3.9-25.1-11.8-32.7s-18.8-11.4-32.7-11.4s-25.3,3.9-33.3,11.6c-8,7.7-12,18.7-12,32.9v4.9h89.8L701.2,161.7L701.2,161.7z"
		/>
	<path class="st0" d="M957.2,210c0,24.6-7.8,43.5-23.4,56.7c-15.6,13.2-36.7,19.8-63.3,19.8s-47.4-6.9-63-20.7s-23.4-33-23.4-57.6
		v-49.8c0-24.6,7.9-43.9,23.6-57.8c15.7-13.9,36.7-20.9,62.8-20.9s47.8,6.7,63.3,20s23.4,32.3,23.4,56.9v3.4h-44.5
		c0-26.9-14.1-40.3-42.2-40.3S829,133.7,829,162.1v41.9c0,28.4,13.8,42.6,41.5,42.6s42.2-13.3,42.2-39.9h44.5V210L957.2,210z"/>
</g>
<g id="Jundiaí">
	<path class="st0" d="M663.7,383.6h3.3c2,0,3.6-0.6,4.7-1.7c1.1-1.1,1.7-2.7,1.7-4.8v-53.5h13.1v49.8c0,7.1-1.5,12.4-4.4,15.9
		c-2.9,3.5-7.8,5.2-14.7,5.2h-3.7V383.6z"/>
	<path class="st0" d="M731.3,394.6v-5.8l-5.3,3.1c-3.5,2.2-7.2,3.2-11.2,3.2c-4.9,0-8.8-1.5-11.6-4.5c-2.8-3-4.2-6.9-4.2-11.8v-34.5
		h11.6v33.1c0,2.2,0.6,4,1.8,5.3c1.2,1.3,2.8,2,4.9,2c1.9,0,4.1-0.7,6.6-2.2l7.3-4.3v-34h11.5v50.3L731.3,394.6L731.3,394.6z"/>
	<path class="st0" d="M787,394.6v-33c0-2.1-0.6-3.9-1.7-5.3c-1.2-1.4-2.8-2.1-5-2.1c-1.9,0-4.1,0.7-6.6,2.2l-7.3,4.4v33.9h-11.5
		v-50.3h11.5v5.9l5.3-3.2c3.3-2,7-3.1,11.2-3.2c4.9,0,8.8,1.5,11.6,4.5c2.8,3,4.2,6.9,4.2,11.8v34.5L787,394.6L787,394.6z"/>
	<path class="st0" d="M843.6,394.6v-5.4l-5.8,3.1c-3.5,2-7.2,3-11.3,3c-5.2,0-9.3-1.6-12.5-4.7s-4.8-7.3-4.8-12.5v-16.9
		c0-5.1,1.6-9.2,4.9-12.5c3.2-3.2,7.4-4.9,12.6-4.9c3.9,0,7.6,1,11.1,3l5.7,3.1v-26.3h11.3v71L843.6,394.6L843.6,394.6z
		 M843.5,360.5l-8-4.5c-2.3-1.3-4.7-1.9-7.1-1.9s-4.3,0.8-5.8,2.2s-2.2,3.5-2.2,6v14.3c0,2.5,0.7,4.6,2.2,6.1
		c1.4,1.5,3.3,2.2,5.8,2.2c2.2,0,4.6-0.7,7.1-2l8-4.4V360.5L843.5,360.5z"/>
	<path class="st0" d="M879.6,330.8c0,1.7-0.6,3-1.8,4c-1.2,1-2.8,1.4-4.8,1.4s-3.5-0.5-4.7-1.4c-1.2-1-1.9-2.3-1.9-4v-2.1
		c0-1.8,0.6-3.1,1.9-4.1s2.8-1.4,4.7-1.4s3.6,0.5,4.8,1.4c1.2,1,1.8,2.3,1.8,4.1V330.8z M867.1,394.6v-50.3h11.8v50.3H867.1z"/>
	<path class="st0" d="M922.7,394.6v-5.8l-5.2,2.9c-4.6,2.4-9,3.6-13.3,3.6s-8.1-1.3-10.8-4s-4.2-6.1-4.2-10.4c0-5,1.7-8.8,5.2-11.5
		s7.9-3.9,13.4-3.9h15v-3c0-6.4-3.4-9.6-10.3-9.6c-7.2,0-10.9,2.9-10.9,8.8h-11.3v-0.7c0-5.6,2-10,6-13.1s9.3-4.7,16-4.7
		s12.2,1.6,16,5c3.8,3.3,5.7,8,5.7,13.9v32.3L922.7,394.6L922.7,394.6z M922.7,373.8h-13.3c-5.7,0-8.6,2.2-8.6,6.6
		c0,1.8,0.5,3.2,1.6,4.1s2.5,1.5,4.4,1.5c2.7,0,5.6-0.8,8.7-2.5l7.2-3.9L922.7,373.8L922.7,373.8z"/>
	<path class="st0" d="M943,337.5l10.3-13.9H968l-12.3,13.9H943z M945.7,394.6v-50.3h11.8v50.3H945.7z"/>
</g>
<g id="Dep_Ary_Fossen">
	<path class="st0" d="M204,488.9v-55.7h19c7.2,0,13.1,1.9,17.6,5.8c4.6,3.9,6.9,9.9,6.9,18.1v7.9c0,4.2-0.7,7.9-2,11
		c-1.3,3.2-3.1,5.7-5.5,7.5c-2.3,1.8-4.9,3.2-7.8,4c-2.9,0.9-6,1.3-9.4,1.3L204,488.9L204,488.9z M237.4,457.1
		c0-10.2-4.8-15.3-14.5-15.3H214v38.2h8.9c9.6,0,14.5-5,14.5-15.1V457.1z"/>
	<path class="st0" d="M290.3,476.5c0,4-1.6,7.2-4.7,9.5s-7.3,3.6-12.6,3.6s-9.4-1.4-12.6-4c-3.2-2.7-4.8-6.4-4.8-11.2V465
		c0-5,1.6-8.9,4.9-11.8c3.2-2.9,7.4-4.4,12.6-4.4s9.5,1.5,12.6,4.4s4.8,6.9,4.8,12v7h-26.2v2c0,2.7,0.8,4.7,2.4,6.1s3.8,2,6.5,2
		c5.7,0,8.5-2,8.5-6.1h8.7L290.3,476.5L290.3,476.5z M281.8,465c0-2.8-0.8-5-2.3-6.4s-3.7-2.2-6.4-2.2s-5,0.8-6.6,2.3
		c-1.6,1.5-2.4,3.7-2.4,6.5v1h17.7V465L281.8,465z"/>
	<path class="st0" d="M299,502.7v-53.3h8.8v4.3l4.6-2.5c2.9-1.5,5.8-2.3,8.8-2.3c4,0,7.3,1.2,9.9,3.8s3.8,5.7,3.8,9.7v13.3
		c0,4-1.3,7.3-3.8,9.9s-5.9,3.8-10,3.8c-2.9,0-5.8-0.8-8.7-2.3l-4.5-2.5v18.1L299,502.7L299,502.7z M325.9,463.5
		c0-2-0.6-3.5-1.7-4.7c-1.1-1.2-2.6-1.8-4.5-1.8s-3.7,0.5-5.5,1.5l-6.2,3.5v14.1l6.2,3.5c1.8,1,3.6,1.6,5.5,1.6s3.3-0.6,4.5-1.8
		c1.1-1.2,1.7-2.7,1.7-4.7V463.5L325.9,463.5z"/>
	<path class="st0" d="M368.6,488.9v-4.6l-4.2,2.5c-2.8,1.7-5.7,2.5-8.8,2.5c-3.9,0-6.9-1.2-9.1-3.5s-3.3-5.4-3.3-9.3v-27.1h9.1v26
		c0,1.8,0.5,3.1,1.4,4.2s2.2,1.6,3.8,1.6c1.5,0,3.2-0.6,5.2-1.7l5.8-3.4v-26.7h9.1v39.5L368.6,488.9L368.6,488.9z"/>
	<path class="st0" d="M404.9,488.9c-4.7,0-8.4-1.2-11-3.5c-2.7-2.3-4-5.7-4-10.1v-18.2h-6v-7.7h6v-10.7h9.3v10.7H410v7.7h-10.9v17.7
		c0,2.2,0.5,3.9,1.6,4.8s2.7,1.4,5,1.4h4.6v7.9H404.9L404.9,488.9z"/>
	<path class="st0" d="M442.2,488.9v-4.6l-4.1,2.2c-3.6,1.9-7.1,2.9-10.4,2.9s-6.3-1-8.5-3.1c-2.2-2.1-3.3-4.8-3.3-8.1
		c0-4,1.4-6.9,4.1-9s6.2-3.1,10.5-3.1h11.8v-2.3c0-5-2.7-7.6-8.1-7.6c-5.7,0-8.5,2.3-8.5,6.9h-8.8v-0.5c0-4.4,1.6-7.8,4.7-10.3
		s7.3-3.7,12.6-3.7s9.6,1.3,12.5,3.9s4.5,6.2,4.5,10.9v25.4L442.2,488.9L442.2,488.9z M442.2,472.6h-10.5c-4.5,0-6.7,1.7-6.7,5.2
		c0,1.4,0.4,2.5,1.2,3.3c0.8,0.8,2,1.2,3.5,1.2c2.1,0,4.4-0.6,6.8-2l5.7-3.1L442.2,472.6L442.2,472.6z"/>
	<path class="st0" d="M486.2,488.9v-4.3l-4.6,2.5c-2.8,1.5-5.7,2.3-8.8,2.3c-4,0-7.3-1.2-9.8-3.7s-3.8-5.7-3.8-9.8v-13.3
		c0-4,1.3-7.3,3.8-9.8s5.8-3.8,9.9-3.8c3,0,5.9,0.8,8.7,2.3l4.5,2.5v-20.7h8.9v55.7L486.2,488.9L486.2,488.9z M486.1,462.1l-6.3-3.5
		c-1.9-1-3.7-1.5-5.5-1.5s-3.4,0.6-4.5,1.8s-1.7,2.7-1.7,4.7v11.2c0,2,0.6,3.6,1.7,4.8c1.1,1.2,2.6,1.8,4.5,1.8
		c1.8,0,3.6-0.5,5.5-1.6l6.3-3.5V462.1z"/>
	<path class="st0" d="M539.3,473.6c0,4.9-1.7,8.8-5,11.7c-3.3,2.9-7.6,4.4-12.9,4.4s-9.6-1.5-12.9-4.4c-3.3-2.9-5-6.8-5-11.7V465
		c0-5,1.6-8.9,5-11.8c3.3-2.9,7.6-4.4,12.9-4.4s9.6,1.5,12.9,4.4s5,6.9,5,11.8V473.6z M530.6,465.9c0-2.9-0.8-5.2-2.5-6.8
		s-3.9-2.4-6.6-2.4s-5,0.8-6.6,2.4c-1.7,1.6-2.5,3.9-2.5,6.8v6.8c0,2.9,0.8,5.2,2.5,6.8s3.9,2.4,6.6,2.4s5-0.8,6.6-2.4
		s2.5-3.9,2.5-6.8V465.9z"/>
	<path class="st0" d="M606.3,488.9l-3.6-10.6h-22l-3.5,10.6h-10.8l19.3-55.7H598l19.3,55.7H606.3z M591.7,443.9l-8.7,25.9h17.5
		L591.7,443.9z"/>
	<path class="st0" d="M623.7,488.9v-39.5h9.1v5.6l1.7-1.7c3-2.8,6.2-4.2,9.7-4.2h2.3v9.2h-2.2c-3.2,0-6,0.9-8.3,2.7l-3.1,2.5v25.3
		H623.7L623.7,488.9z"/>
	<path class="st0" d="M654.5,502.7V495h1.7c1.7,0,2.9-0.3,3.8-1s1.6-1.7,2.2-3.1l1.6-3.8l-15-37.6h9.9l9.8,26.4l8.5-26.4h9.5
		L671,492.9c-2.2,6.5-7,9.7-14.2,9.7L654.5,502.7L654.5,502.7z"/>
	<path class="st0" d="M724,465.8v23.1h-10v-55.7h36.2v8.8H724v15h23.9v8.8H724z"/>
	<path class="st0" d="M790.6,473.6c0,4.9-1.7,8.8-5,11.7c-3.3,2.9-7.6,4.4-12.9,4.4s-9.6-1.5-12.9-4.4s-5-6.8-5-11.7V465
		c0-5,1.7-8.9,5-11.8c3.3-2.9,7.6-4.4,12.9-4.4s9.6,1.5,12.9,4.4s5,6.9,5,11.8V473.6z M781.9,465.9c0-2.9-0.8-5.2-2.5-6.8
		s-3.9-2.4-6.6-2.4s-5,0.8-6.6,2.4c-1.7,1.6-2.5,3.9-2.5,6.8v6.8c0,2.9,0.8,5.2,2.5,6.8s3.9,2.4,6.6,2.4s5-0.8,6.6-2.4
		s2.5-3.9,2.5-6.8V465.9z"/>
	<path class="st0" d="M823.1,462.2c0-4.1-2.7-6.1-8-6.1c-2.5,0-4.3,0.5-5.7,1.4s-2,2.1-2,3.5c0,1.6,0.8,2.8,2.5,3.6
		c1.7,0.7,3.8,1.2,6.2,1.5s4.9,0.6,7.3,1.1c2.5,0.5,4.5,1.5,6.2,3.2s2.5,4,2.5,7c0,3.9-1.5,6.9-4.6,9c-3.1,2.2-7.2,3.3-12.5,3.3
		s-9.7-1.1-12.7-3.4s-4.5-5.4-4.5-9.5v-0.5h9.1c0,4.1,2.8,6.1,8.2,6.1c2.5,0,4.5-0.5,6-1.4c1.4-0.9,2.1-2.1,2.1-3.5
		c0-1.2-0.6-2.2-1.8-2.9c-1.2-0.7-2.8-1.1-4.6-1.3s-3.8-0.4-6-0.8c-2.1-0.4-4.1-0.9-6-1.5c-1.8-0.6-3.4-1.8-4.6-3.4
		c-1.2-1.6-1.8-3.8-1.8-6.3c0-3.9,1.5-6.9,4.5-9.1s7.1-3.3,12.3-3.3s9.5,1.1,12.4,3.5s4.3,5.5,4.3,9.5v0.5L823.1,462.2L823.1,462.2z
		"/>
	<path class="st0" d="M864.1,462.2c0-4.1-2.7-6.1-8-6.1c-2.5,0-4.3,0.5-5.7,1.4s-2,2.1-2,3.5c0,1.6,0.8,2.8,2.5,3.6
		c1.7,0.7,3.8,1.2,6.2,1.5s4.9,0.6,7.3,1.1c2.5,0.5,4.5,1.5,6.2,3.2s2.5,4,2.5,7c0,3.9-1.5,6.9-4.6,9c-3.1,2.2-7.2,3.3-12.5,3.3
		s-9.7-1.1-12.7-3.4s-4.5-5.4-4.5-9.5v-0.5h9.1c0,4.1,2.8,6.1,8.2,6.1c2.5,0,4.5-0.5,6-1.4c1.4-0.9,2.1-2.1,2.1-3.5
		c0-1.2-0.6-2.2-1.8-2.9c-1.2-0.7-2.8-1.1-4.6-1.3s-3.8-0.4-6-0.8c-2.1-0.4-4.1-0.9-6-1.5c-1.8-0.6-3.4-1.8-4.6-3.4
		c-1.2-1.6-1.8-3.8-1.8-6.3c0-3.9,1.5-6.9,4.5-9.1s7.1-3.3,12.3-3.3s9.5,1.1,12.4,3.5c2.9,2.3,4.3,5.5,4.3,9.5v0.5L864.1,462.2
		L864.1,462.2z"/>
	<path class="st0" d="M915.2,476.5c0,4-1.6,7.2-4.7,9.5c-3.2,2.4-7.3,3.6-12.6,3.6s-9.4-1.4-12.6-4c-3.2-2.7-4.8-6.4-4.8-11.2V465
		c0-5,1.6-8.9,4.9-11.8c3.2-2.9,7.4-4.4,12.6-4.4s9.5,1.5,12.6,4.4s4.8,6.9,4.8,12v7h-26.2v2c0,2.7,0.8,4.7,2.4,6.1s3.8,2,6.5,2
		c5.7,0,8.5-2,8.5-6.1h8.7V476.5z M906.8,465c0-2.8-0.8-5-2.3-6.4s-3.7-2.2-6.4-2.2s-5,0.8-6.6,2.3c-1.6,1.5-2.4,3.7-2.4,6.5v1h17.7
		V465L906.8,465z"/>
	<path class="st0" d="M949.2,488.9V463c0-1.6-0.5-3-1.3-4.2c-0.9-1.1-2.2-1.7-3.9-1.7c-1.5,0-3.2,0.6-5.2,1.7l-5.8,3.5v26.6h-9.1
		v-39.5h9v4.6l4.2-2.5c2.6-1.6,5.5-2.5,8.8-2.5c3.8,0,6.9,1.2,9.1,3.5c2.2,2.4,3.3,5.4,3.3,9.3v27.1L949.2,488.9L949.2,488.9z"/>
</g>
</svg>
